<svg xmlns="http://www.w3.org/2000/svg"  viewBox="0 0 64 64" width="64px" height="64px"><path d="M 30.878906 2 C 14.886719 2.066406 1.933594 15.132813 2 31.121094 C 2.066406 47.070313 15.0625 60 31 60 L 31.121094 60 C 47.113281 59.933594 60.066406 46.867188 60 30.878906 C 59.933594 14.929688 46.9375 2 31 2 Z M 30.886719 4 L 31.003906 4 C 38.171875 4 44.917969 6.777344 50.011719 11.828125 C 55.132813 16.902344 57.96875 23.675781 58 30.886719 C 58.03125 38.097656 55.25 44.890625 50.171875 50.011719 C 45.097656 55.132813 38.324219 57.96875 31.113281 58 L 30.996094 58 C 23.828125 58 17.082031 55.222656 11.988281 50.171875 C 6.867188 45.097656 4.03125 38.324219 4 31.113281 C 3.96875 23.902344 6.75 17.109375 11.828125 11.988281 C 16.902344 6.867188 23.675781 4.03125 30.886719 4 Z M 30.65625 7.003906 C 26.753906 7.0625 22.90625 8.109375 19.519531 10.0625 C 19.039063 10.335938 18.875 10.949219 19.152344 11.425781 C 19.335938 11.75 19.671875 11.929688 20.019531 11.929688 C 20.1875 11.929688 20.359375 11.886719 20.515625 11.796875 C 24.640625 9.417969 29.519531 8.515625 34.246094 9.25 C 34.800781 9.332031 35.304688 8.964844 35.390625 8.417969 C 35.472656 7.871094 35.101563 7.359375 34.554688 7.273438 C 33.257813 7.074219 31.953125 6.984375 30.65625 7.003906 Z M 38.5625 8.351563 C 38.175781 8.367188 37.816406 8.617188 37.671875 9.007813 C 37.480469 9.523438 37.746094 10.097656 38.265625 10.289063 C 38.980469 10.554688 39.6875 10.863281 40.367188 11.203125 C 40.511719 11.273438 40.664063 11.308594 40.8125 11.308594 C 41.179688 11.308594 41.53125 11.105469 41.707031 10.75 C 41.953125 10.257813 41.753906 9.65625 41.261719 9.410156 C 40.515625 9.039063 39.738281 8.703125 38.953125 8.414063 C 38.824219 8.367188 38.695313 8.347656 38.5625 8.351563 Z M 28 16 C 26.898438 16 26 16.898438 26 18 L 26 26 L 18 26 C 16.898438 26 16 26.898438 16 28 L 16 34 C 16 35.101563 16.898438 36 18 36 L 26 36 L 26 44 C 26 45.101563 26.898438 46 28 46 L 34 46 C 35.101563 46 36 45.101563 36 44 L 36 36 L 44 36 C 45.101563 36 46 35.101563 46 34 L 46 28 C 46 26.898438 45.101563 26 44 26 L 36 26 L 36 18 C 36 16.898438 35.101563 16 34 16 Z M 28 18 L 34 18 L 34 27 C 34 27.550781 34.449219 28 35 28 L 44 28 L 44 34 L 35 34 C 34.449219 34 34 34.449219 34 35 L 34 44 L 28 44 L 28 35 C 28 34.449219 27.550781 34 27 34 L 18 34 L 18 28 L 27 28 C 27.550781 28 28 27.550781 28 27 Z M 40.703125 48.355469 C 40.574219 48.371094 40.441406 48.414063 40.324219 48.484375 C 39.847656 48.761719 39.6875 49.375 39.964844 49.847656 L 40.96875 51.578125 C 41.15625 51.898438 41.492188 52.074219 41.835938 52.074219 C 42.007813 52.074219 42.179688 52.03125 42.339844 51.9375 C 42.816406 51.660156 42.976563 51.046875 42.699219 50.574219 L 41.691406 48.84375 C 41.484375 48.484375 41.085938 48.304688 40.703125 48.355469 Z M 21.449219 48.4375 C 21.058594 48.390625 20.667969 48.574219 20.460938 48.933594 L 19.46875 50.671875 C 19.191406 51.148438 19.359375 51.757813 19.839844 52.03125 C 19.996094 52.125 20.164063 52.164063 20.332031 52.164063 C 20.679688 52.164063 21.019531 51.984375 21.203125 51.660156 L 22.195313 49.925781 C 22.46875 49.445313 22.304688 48.835938 21.824219 48.5625 C 21.703125 48.492188 21.578125 48.449219 21.449219 48.4375 Z M 36.265625 50.324219 C 36.136719 50.308594 36.003906 50.3125 35.871094 50.347656 C 35.335938 50.496094 35.023438 51.042969 35.167969 51.578125 L 35.691406 53.507813 C 35.8125 53.953125 36.21875 54.246094 36.65625 54.246094 C 36.746094 54.246094 36.835938 54.230469 36.921875 54.207031 C 37.457031 54.0625 37.769531 53.515625 37.625 52.980469 L 37.097656 51.050781 C 36.988281 50.652344 36.65625 50.375 36.265625 50.324219 Z M 25.898438 50.367188 C 25.511719 50.421875 25.179688 50.699219 25.074219 51.101563 L 24.5625 53.035156 C 24.421875 53.570313 24.738281 54.117188 25.273438 54.261719 C 25.359375 54.28125 25.445313 54.292969 25.53125 54.292969 C 25.972656 54.292969 26.378906 53.996094 26.496094 53.546875 L 27.003906 51.609375 C 27.144531 51.078125 26.828125 50.53125 26.296875 50.390625 C 26.160156 50.355469 26.027344 50.347656 25.898438 50.367188 Z M 31.082031 51 C 30.53125 51.003906 30.085938 51.453125 30.089844 52.003906 L 30.097656 54.003906 C 30.101563 54.554688 30.546875 55 31.097656 55 L 31.101563 55 C 31.65625 54.996094 32.101563 54.546875 32.097656 53.996094 L 32.089844 51.996094 C 32.085938 51.445313 31.640625 51 31.089844 51 Z"/></svg>