<svg xmlns="http://www.w3.org/2000/svg" xmlns:xlink="http://www.w3.org/1999/xlink" viewBox="0,0,256,256" width="64px" height="64px" fill-rule="nonzero"><g fill="#86b049" fill-rule="nonzero" stroke="none" stroke-width="1" stroke-linecap="butt" stroke-linejoin="miter" stroke-miterlimit="10" stroke-dasharray="" stroke-dashoffset="0" font-family="none" font-weight="none" font-size="none" text-anchor="none" style="mix-blend-mode: normal"><g transform="scale(4,4)"><path d="M30.87891,2c-15.99219,0.06641 -28.94531,13.13281 -28.87891,29.12109c0.06641,15.94922 13.0625,28.87891 29,28.87891h0.12109c15.99219,-0.06641 28.94531,-13.13281 28.87891,-29.12109c-0.06641,-15.94922 -13.0625,-28.87891 -29,-28.87891zM30.88672,4h0.11719c7.16797,0 13.91406,2.77734 19.00781,7.82813c5.12109,5.07422 7.95703,11.84766 7.98828,19.05859c0.03125,7.21094 -2.75,14.00391 -7.82812,19.125c-5.07422,5.12109 -11.84766,7.95703 -19.05859,7.98828h-0.11719c-7.16797,0 -13.91406,-2.77734 -19.00781,-7.82812c-5.12109,-5.07422 -7.95703,-11.84766 -7.98828,-19.05859c-0.03125,-7.21094 2.75,-14.00391 7.82813,-19.125c5.07422,-5.12109 11.84766,-7.95703 19.05859,-7.98828zM30.65625,7.00391c-3.90234,0.05859 -7.75,1.10547 -11.13672,3.05859c-0.48047,0.27344 -0.64453,0.88672 -0.36719,1.36328c0.18359,0.32422 0.51953,0.50391 0.86719,0.50391c0.16797,0 0.33984,-0.04297 0.49609,-0.13281c4.125,-2.37891 9.00391,-3.28125 13.73047,-2.54687c0.55469,0.08203 1.05859,-0.28516 1.14453,-0.83203c0.08203,-0.54687 -0.28906,-1.05859 -0.83594,-1.14453c-1.29687,-0.19922 -2.60156,-0.28906 -3.89844,-0.26953zM38.5625,8.35156c-0.38672,0.01563 -0.74609,0.26563 -0.89062,0.65625c-0.19141,0.51563 0.07422,1.08984 0.59375,1.28125c0.71484,0.26563 1.42188,0.57422 2.10156,0.91406c0.14453,0.07031 0.29688,0.10547 0.44531,0.10547c0.36719,0 0.71875,-0.20312 0.89453,-0.55859c0.24609,-0.49219 0.04688,-1.09375 -0.44531,-1.33984c-0.74609,-0.37109 -1.52344,-0.70703 -2.30859,-0.99609c-0.12891,-0.04687 -0.25781,-0.06641 -0.39062,-0.0625zM28,16c-1.10156,0 -2,0.89844 -2,2v8h-8c-1.10156,0 -2,0.89844 -2,2v6c0,1.10156 0.89844,2 2,2h8v8c0,1.10156 0.89844,2 2,2h6c1.10156,0 2,-0.89844 2,-2v-8h8c1.10156,0 2,-0.89844 2,-2v-6c0,-1.10156 -0.89844,-2 -2,-2h-8v-8c0,-1.10156 -0.89844,-2 -2,-2zM28,18h6v9c0,0.55078 0.44922,1 1,1h9v6h-9c-0.55078,0 -1,0.44922 -1,1v9h-6v-9c0,-0.55078 -0.44922,-1 -1,-1h-9v-6h9c0.55078,0 1,-0.44922 1,-1zM40.70313,48.35547c-0.12891,0.01563 -0.26172,0.05859 -0.37891,0.12891c-0.47656,0.27734 -0.63672,0.89063 -0.35937,1.36328l1.00391,1.73047c0.1875,0.32031 0.52344,0.49609 0.86719,0.49609c0.17188,0 0.34375,-0.04297 0.50391,-0.13672c0.47656,-0.27734 0.63672,-0.89062 0.35938,-1.36328l-1.00781,-1.73047c-0.20703,-0.35937 -0.60547,-0.53906 -0.98828,-0.48828zM21.44922,48.4375c-0.39062,-0.04687 -0.78125,0.13672 -0.98828,0.49609l-0.99219,1.73828c-0.27734,0.47656 -0.10937,1.08594 0.37109,1.35938c0.15625,0.09375 0.32422,0.13281 0.49219,0.13281c0.34766,0 0.6875,-0.17969 0.87109,-0.50391l0.99219,-1.73437c0.27344,-0.48047 0.10938,-1.08984 -0.37109,-1.36328c-0.12109,-0.07031 -0.24609,-0.11328 -0.375,-0.125zM36.26563,50.32422c-0.12891,-0.01562 -0.26172,-0.01172 -0.39453,0.02344c-0.53516,0.14844 -0.84766,0.69531 -0.70312,1.23047l0.52344,1.92969c0.12109,0.44531 0.52734,0.73828 0.96484,0.73828c0.08984,0 0.17969,-0.01562 0.26563,-0.03906c0.53516,-0.14453 0.84766,-0.69141 0.70313,-1.22656l-0.52734,-1.92969c-0.10937,-0.39844 -0.44141,-0.67578 -0.83203,-0.72656zM25.89844,50.36719c-0.38672,0.05469 -0.71875,0.33203 -0.82422,0.73438l-0.51172,1.93359c-0.14062,0.53516 0.17578,1.08203 0.71094,1.22656c0.08594,0.01953 0.17188,0.03125 0.25781,0.03125c0.44141,0 0.84766,-0.29687 0.96484,-0.74609l0.50781,-1.9375c0.14063,-0.53125 -0.17578,-1.07812 -0.70703,-1.21875c-0.13672,-0.03516 -0.26953,-0.04297 -0.39844,-0.02344zM31.08203,51c-0.55078,0.00391 -0.99609,0.45313 -0.99219,1.00391l0.00781,2c0.00391,0.55078 0.44922,0.99609 1,0.99609h0.00391c0.55469,-0.00391 1,-0.45312 0.99609,-1.00391l-0.00781,-2c-0.00391,-0.55078 -0.44922,-0.99609 -1,-0.99609z"></path></g></g></svg>