<svg xmlns="http://www.w3.org/2000/svg" xmlns:xlink="http://www.w3.org/1999/xlink" viewBox="0,0,256,256" width="48px" height="48px" fill-rule="nonzero"><defs><linearGradient x1="12" y1="41" x2="42" y2="41" gradientUnits="userSpaceOnUse" id="color-1"><stop offset="0" stop-color="#e53935"></stop><stop offset="1" stop-color="#c62828"></stop></linearGradient><linearGradient x1="6" y1="41" x2="12" y2="41" gradientUnits="userSpaceOnUse" id="color-2"><stop offset="0" stop-color="#d32f2f"></stop><stop offset="1" stop-color="#b71c1c"></stop></linearGradient></defs><g fill="none" fill-rule="nonzero" stroke="none" stroke-width="1" stroke-linecap="butt" stroke-linejoin="miter" stroke-miterlimit="10" stroke-dasharray="" stroke-dashoffset="0" font-family="none" font-weight="none" font-size="none" text-anchor="none" style="mix-blend-mode: normal"><g transform="scale(5.33333,5.33333)"><path d="M42,4v33.5h-31v-34.5h30c0.55,0 1,0.45 1,1z" fill="#f45e4c"></path><path d="M39.5,37v7h-27.5v1h29c0.552,0 1,-0.448 1,-1v-7z" fill="url(#color-1)"></path><path d="M11,3c-0.171,0 -0.339,0.05 -0.5,0.127c-0.309,0.148 -0.586,0.373 -0.75,0.373c-0.25,0 -0.75,-0.5 -1.25,-0.5h-0.5c-1.105,0 -2,0.895 -2,2v34.5h0.5v-0.5c0,-0.828 0.672,-1.5 1.5,-1.5h4v-34.5z" fill="#e53935"></path><path d="M9,37.5h-1c-0.828,0 -1.5,0.672 -1.5,1.5v4c0,0.828 0.672,1.5 1.5,1.5h1z" fill="#551c1c"></path><path d="M9.75,3.5c-0.164,0 -0.441,-0.222 -0.75,-0.37v34.37h1.5v-34.373c-0.309,0.148 -0.586,0.373 -0.75,0.373z" fill="#e53935"></path><path d="M9.086,3.175v34.323c0.007,0.001 0.656,0.002 0.664,0.002c0.008,0 0.657,-0.001 0.664,-0.002v-34.325c-0.272,0.13 -0.517,0.327 -0.664,0.327c-0.147,0 -0.392,-0.195 -0.664,-0.325z" fill="#de3531"></path><path d="M9.171,3.221v34.275c0.014,0.002 0.563,0.004 0.579,0.004c0.016,0 0.565,-0.002 0.579,-0.004v-34.277c-0.237,0.112 -0.45,0.281 -0.579,0.281c-0.129,0 -0.342,-0.167 -0.579,-0.279z" fill="#d8312e"></path><path d="M9.257,3.267v34.228c0.021,0.002 0.469,0.005 0.493,0.005c0.024,0 0.472,-0.003 0.493,-0.006v-34.229c-0.2,0.094 -0.382,0.235 -0.493,0.235c-0.111,0 -0.293,-0.139 -0.493,-0.233z" fill="#d12d2a"></path><path d="M9.343,3.312v34.18c0.028,0.004 0.375,0.008 0.407,0.008c0.032,0 0.379,-0.004 0.407,-0.007v-34.182c-0.163,0.076 -0.313,0.189 -0.407,0.189c-0.094,0 -0.244,-0.112 -0.407,-0.188z" fill="#cb2827"></path><path d="M9.429,3.358v34.133c0.034,0.004 0.28,0.009 0.321,0.009c0.041,0 0.287,-0.005 0.321,-0.009v-34.134c-0.126,0.058 -0.245,0.143 -0.321,0.143c-0.076,0 -0.195,-0.084 -0.321,-0.142z" fill="#c42423"></path><path d="M9.514,3.404v34.085c0.042,0.004 0.187,0.011 0.236,0.011c0.049,0 0.194,-0.007 0.236,-0.011v-34.086c-0.09,0.04 -0.178,0.097 -0.236,0.097c-0.058,0 -0.146,-0.056 -0.236,-0.096z" fill="#be2020"></path><path d="M9.75,3.5c-0.041,0 -0.097,-0.029 -0.15,-0.051v34.038c0.048,0.005 0.093,0.013 0.15,0.013c0.057,0 0.102,-0.008 0.15,-0.013v-34.038c-0.053,0.022 -0.109,0.051 -0.15,0.051z" fill="#b71c1c"></path><g><path d="M41,38h-32c-0.551,0 -1,0.673 -1,1.5v3c0,0.827 0.449,1.5 1,1.5h32c0,0 -0.5,-0.75 -0.5,-3c0,-2.25 0.5,-3 0.5,-3z" fill="#b8b7aa"></path><path d="M40.955,38.167h-31.733c-0.551,0 -1,0.673 -1,1.5v2.667c0,0.827 0.449,1.5 1,1.5h31.732c-0.005,-0.045 -0.454,-0.767 -0.454,-2.834c0,-2.067 0.449,-2.789 0.455,-2.833z" fill="#bcbbae"></path><path d="M40.909,38.333h-31.465c-0.552,0 -1,0.673 -1,1.5v2.333c0,0.827 0.448,1.5 1,1.5h31.465c-0.012,-0.089 -0.409,-0.781 -0.409,-2.666c0,-1.885 0.397,-2.577 0.409,-2.667z" fill="#c1c0b2"></path><path d="M40.864,38.5h-31.197c-0.552,0 -1,0.672 -1,1.5v2c0,0.828 0.448,1.5 1,1.5h31.197c-0.018,-0.134 -0.364,-0.798 -0.364,-2.5c0,-1.702 0.346,-2.366 0.364,-2.5z" fill="#c5c4b6"></path><path d="M40.818,38.667h-30.929c-0.552,0 -1,0.672 -1,1.5v1.667c0,0.828 0.448,1.5 1,1.5h30.929c-0.023,-0.18 -0.318,-0.814 -0.318,-2.334c0,-1.52 0.295,-2.154 0.318,-2.333z" fill="#cac8ba"></path><path d="M40.773,38.833h-30.662c-0.552,0 -1,0.672 -1,1.5v1.333c0,0.828 0.448,1.5 1,1.5h30.662c-0.03,-0.223 -0.273,-0.829 -0.273,-2.166c0,-1.337 0.243,-1.943 0.273,-2.167z" fill="#cecdbf"></path><path d="M40.727,39h-30.394c-0.552,0 -1,0.672 -1,1.5v1c0,0.828 0.448,1.5 1,1.5h30.394c-0.035,-0.269 -0.227,-0.845 -0.227,-2c0,-1.155 0.192,-1.731 0.227,-2z" fill="#d3d1c3"></path><path d="M40.682,39.167h-30.126c-0.552,0 -1,0.672 -1,1.5v0.667c0,0.828 0.448,1.5 1,1.5h30.126c-0.042,-0.314 -0.182,-0.862 -0.182,-1.834c0,-0.972 0.14,-1.52 0.182,-1.833z" fill="#d7d5c7"></path><path d="M40.636,39.333h-29.858c-0.552,0 -1,0.672 -1,1.5v0.333c0,0.828 0.448,1.5 1,1.5h29.858c-0.047,-0.358 -0.136,-0.877 -0.136,-1.666c0,-0.789 0.089,-1.308 0.136,-1.667z" fill="#dcdacb"></path><path d="M40.5,41c0,-0.607 0.038,-1.097 0.091,-1.5h-29.591c-0.552,0 -1,0.672 -1,1.5v0c0,0.828 0.448,1.5 1,1.5h29.591c-0.053,-0.403 -0.091,-0.893 -0.091,-1.5z" fill="#e0decf"></path></g><path d="M41,37h-29v1h29.25c0.414,0 0.75,-0.336 0.75,-0.75v-1.25c0,0.552 -0.448,1 -1,1z" fill="#e53935"></path><path d="M8,38c0,0 0,0 0.5,0c0.5,0 1,0.5 1.25,0.5c0.25,0 0.75,-0.5 1.25,-0.5c0.098,0 0.472,0 1,0v-1c-0.587,0 -0.949,0 -1,0c-0.5,0 -1,0.5 -1.25,0.5c-0.25,0 -0.75,-0.5 -1.25,-0.5c-0.5,0 -0.5,0 -0.5,0c-1.105,0 -2,0.895 -2,2v4c0,1.105 0.895,2 2,2h0.5c0.5,0 1,-0.5 1.25,-0.5c0.25,0 0.75,0.5 1.25,0.5h1v-1h-1c-0.5,0 -1,-0.5 -1.25,-0.5c-0.25,0 -0.75,0.5 -1.25,0.5h-0.5c-0.552,0 -1,-0.448 -1,-1v-4c0,-0.552 0.448,-1 1,-1z" fill="url(#color-2)"></path></g></g></svg>