<svg xmlns="http://www.w3.org/2000/svg" xmlns:xlink="http://www.w3.org/1999/xlink" viewBox="0,0,256,256" width="64px" height="64px" fill-rule="nonzero"><g fill="#86b049" fill-rule="nonzero" stroke="none" stroke-width="1" stroke-linecap="butt" stroke-linejoin="miter" stroke-miterlimit="10" stroke-dasharray="" stroke-dashoffset="0" font-family="none" font-weight="none" font-size="none" text-anchor="none" style="mix-blend-mode: normal"><g transform="scale(4,4)"><path d="M7,5c-1.3,0 -2.40031,0.84 -2.82031,2h-1.17969c-1.65,0 -3,1.35 -3,3v40c0,1.65 1.35,3 3,3h21.2207c0.59,0 1.10023,0.4007 1.24023,0.9707c0.45,1.78 2.03891,3.0293 3.87891,3.0293h3.32031c0.66,0 1.28961,-0.16094 1.84961,-0.46094l0.89063,1.21094c1.91,2.67 4.66961,4.21 7.59961,4.25h9.14063c0.15,0 0.32977,0.00977 0.50977,0.00977c0.16,0 0.31016,-0.00977 0.41016,-0.00977c5.53,-0.33 9.28945,-4.9693 8.93945,-11.0293v-0.9707v-6v-34c0,-1.65 -1.35,-3 -3,-3h-1.17969c-0.42,-1.16 -1.52031,-2 -2.82031,-2h-20c-1.64,0 -3.09,0.8093 -4,2.0293c-0.91,-1.22 -2.36,-2.0293 -4,-2.0293zM7,7h20c1.65,0 3,1.35 3,3v26c0,0.55 0.45,1 1,1c0.55,0 1,-0.45 1,-1v-26c0,-1.65 1.35,-3 3,-3h20c0.55,0 1,0.45 1,1v32.55078c-0.09,0.05 -0.17953,0.10992 -0.26953,0.16992c-0.51,-1.31 -1.76047,-2.7207 -3.73047,-2.7207c-1.05,0 -1.96039,0.33016 -2.65039,0.91016c-0.69,-1.23 -1.84961,-1.91016 -3.34961,-1.91016c-0.74,0 -1.42,0.18023 -2,0.49023v-10.48047c0.01,-1.03 -0.41945,-2.06031 -1.18945,-2.82031c-0.75,-0.74 -1.77078,-1.17945 -2.80078,-1.18945h-0.0293c-2.14,0 -3.95047,1.82 -3.98047,4v16.23047l-3.44922,-2.06055l-0.16016,-0.10937c-0.13,-0.09 -0.26062,-0.17977 -0.39062,-0.25977v-0.80078c0,-0.55 -0.45,-1 -1,-1c-0.55,0 -1,0.45 -1,1c-1.11,0.01 -2.08008,0.40016 -2.83008,1.16016c-0.74,0.75 -1.15992,1.75008 -1.16992,2.83008c-0.01,0.6 1.16945,2.56961 1.18945,2.59961l0.33008,0.43945c-0.17,-0.02 -0.34953,-0.0293 -0.51953,-0.0293h-20c-0.55,0 -1,-0.45 -1,-1v-38c0,-0.55 0.45,-1 1,-1zM3,9h1v37c0,1.65 1.35,3 3,3h20c1.65,0 3,1.35 3,3c0,0.55 0.45,1 1,1c0.27,0 0.51922,-0.1093 0.69922,-0.2793l1.60156,2.17969c-0.2,0.06 -0.42063,0.09961 -0.64062,0.09961h-3.32031c-0.92,0 -1.70945,-0.61953 -1.93945,-1.51953c-0.36,-1.46 -1.66969,-2.48047 -3.17969,-2.48047h-21.2207c-0.55,0 -1,-0.45 -1,-1v-40c0,-0.55 0.45,-1 1,-1zM58,9h1c0.55,0 1,0.45 1,1v30.57031c-0.55,-0.35 -1.22,-0.57031 -2,-0.57031zM10,11c-0.55,0 -1,0.45 -1,1v2c0,0.55 0.45,1 1,1c0.55,0 1,-0.45 1,-1v-2c0,-0.55 -0.45,-1 -1,-1zM15,11c-0.55,0 -1,0.45 -1,1v2c0,0.55 0.45,1 1,1c0.55,0 1,-0.45 1,-1v-2c0,-0.55 -0.45,-1 -1,-1zM20,11c-0.55,0 -1,0.45 -1,1v2c0,0.55 0.45,1 1,1c0.55,0 1,-0.45 1,-1v-2c0,-0.55 -0.45,-1 -1,-1zM25,11c-0.55,0 -1,0.45 -1,1v2c0,0.55 0.45,1 1,1c0.55,0 1,-0.45 1,-1v-2c0,-0.55 -0.45,-1 -1,-1zM37,11c-0.55,0 -1,0.45 -1,1v2c0,0.55 0.45,1 1,1c0.55,0 1,-0.45 1,-1v-2c0,-0.55 -0.45,-1 -1,-1zM42,11c-0.55,0 -1,0.45 -1,1v2c0,0.55 0.45,1 1,1c0.55,0 1,-0.45 1,-1v-2c0,-0.55 -0.45,-1 -1,-1zM47,11c-0.55,0 -1,0.45 -1,1v2c0,0.55 0.45,1 1,1c0.55,0 1,-0.45 1,-1v-2c0,-0.55 -0.45,-1 -1,-1zM52,11c-0.55,0 -1,0.45 -1,1v2c0,0.55 0.45,1 1,1c0.55,0 1,-0.45 1,-1v-2c0,-0.55 -0.45,-1 -1,-1zM39.98047,25h0.00977c0.51,0 1.03016,0.22938 1.41016,0.60938c0.39,0.39 0.59961,0.89063 0.59961,1.39063v14c0,0.55 0.44023,1 0.99023,1h0.00977c0.55,0 0.99,-0.44023 1,-0.99023c0.01,-1.2 0.82,-2.00977 2,-2.00977c0.45,0 1.65,0.00008 2,2.08008v0.91992c0,0.55 0.44,1 1,1c0.55,0 0.99,-0.44023 1,-0.99023c0.01,-0.6 0.21,-2.00977 2,-2.00977c1.4,0 2,1.52 2,2v1c0,0.46 0.31953,0.8607 0.76953,0.9707c0.44,0.1 0.91109,-0.11148 1.12109,-0.52148c0,0 0.03937,-0.06992 0.10938,-0.16992c0.24,-0.38 0.94,-1.2793 2,-1.2793c1.4,0 2,1.52 2,2v7.06055c0.04,0.61 0.02094,1.19953 -0.03906,1.76953c-0.42,4.03 -3.17148,6.93992 -7.02148,7.16992c-0.16,0.01 -0.52953,0.01 -0.76953,0h-9.16016c-2.27,-0.03 -4.45023,-1.26992 -5.99023,-3.41992l-1.01953,-1.38086l-1.35937,-1.84961l-2.16992,-2.95898l-1.2207,-1.66016l-2.41016,-3.28125c-0.12,-0.18 -0.65008,-1.20961 -0.83008,-1.59961c0.04,-0.49 0.24008,-0.9393 0.58008,-1.2793c0.36,-0.37 0.85063,-0.54031 1.39063,-0.57031h0.01953c0.29,0.05 1.01953,0.5507 1.26953,0.7207l0.73047,0.43945l4.49023,2.69922c0.3,0.18 0.69,0.18977 1,0.00977c0.32,-0.18 0.50977,-0.50914 0.50977,-0.86914v-17.99023c0.01,-1.05 0.95047,-2.00977 1.98047,-2.00977z"></path></g></g></svg>