<svg xmlns="http://www.w3.org/2000/svg"  viewBox="0 0 64 64" width="64px" height="64px"><path d="M 7 5 C 5.7 5 4.5996875 5.84 4.1796875 7 L 3 7 C 1.35 7 0 8.35 0 10 L 0 50 C 0 51.65 1.35 53 3 53 L 24.220703 53 C 24.810703 53 25.320937 53.400703 25.460938 53.970703 C 25.910938 55.750703 27.499844 57 29.339844 57 L 32.660156 57 C 33.320156 57 33.949766 56.839063 34.509766 56.539062 L 35.400391 57.75 C 37.310391 60.42 40.07 61.96 43 62 L 52.140625 62 C 52.290625 62 52.470391 62.009766 52.650391 62.009766 C 52.810391 62.009766 52.960547 62 53.060547 62 C 58.590547 61.67 62.35 57.030703 62 50.970703 L 62 50 L 62 44 L 62 10 C 62 8.35 60.65 7 59 7 L 57.820312 7 C 57.400312 5.84 56.3 5 55 5 L 35 5 C 33.36 5 31.91 5.8092969 31 7.0292969 C 30.09 5.8092969 28.64 5 27 5 L 7 5 z M 7 7 L 27 7 C 28.65 7 30 8.35 30 10 L 30 36 C 30 36.55 30.45 37 31 37 C 31.55 37 32 36.55 32 36 L 32 10 C 32 8.35 33.35 7 35 7 L 55 7 C 55.55 7 56 7.45 56 8 L 56 40.550781 C 55.91 40.600781 55.820469 40.660703 55.730469 40.720703 C 55.220469 39.410703 53.97 38 52 38 C 50.95 38 50.039609 38.330156 49.349609 38.910156 C 48.659609 37.680156 47.5 37 46 37 C 45.26 37 44.58 37.180234 44 37.490234 L 44 27.009766 C 44.01 25.979766 43.580547 24.949453 42.810547 24.189453 C 42.060547 23.449453 41.039766 23.01 40.009766 23 L 39.980469 23 C 37.840469 23 36.03 24.82 36 27 L 36 43.230469 L 32.550781 41.169922 L 32.390625 41.060547 C 32.260625 40.970547 32.13 40.880781 32 40.800781 L 32 40 C 32 39.45 31.55 39 31 39 C 30.45 39 30 39.45 30 40 C 28.89 40.01 27.919922 40.400156 27.169922 41.160156 C 26.429922 41.910156 26.01 42.910234 26 43.990234 C 25.99 44.590234 27.169453 46.559844 27.189453 46.589844 L 27.519531 47.029297 C 27.349531 47.009297 27.17 47 27 47 L 7 47 C 6.45 47 6 46.55 6 46 L 6 8 C 6 7.45 6.45 7 7 7 z M 3 9 L 4 9 L 4 46 C 4 47.65 5.35 49 7 49 L 27 49 C 28.65 49 30 50.35 30 52 C 30 52.55 30.45 53 31 53 C 31.27 53 31.519219 52.890703 31.699219 52.720703 L 33.300781 54.900391 C 33.100781 54.960391 32.880156 55 32.660156 55 L 29.339844 55 C 28.419844 55 27.630391 54.380469 27.400391 53.480469 C 27.040391 52.020469 25.730703 51 24.220703 51 L 3 51 C 2.45 51 2 50.55 2 50 L 2 10 C 2 9.45 2.45 9 3 9 z M 58 9 L 59 9 C 59.55 9 60 9.45 60 10 L 60 40.570312 C 59.45 40.220312 58.78 40 58 40 L 58 9 z M 10 11 C 9.45 11 9 11.45 9 12 L 9 14 C 9 14.55 9.45 15 10 15 C 10.55 15 11 14.55 11 14 L 11 12 C 11 11.45 10.55 11 10 11 z M 15 11 C 14.45 11 14 11.45 14 12 L 14 14 C 14 14.55 14.45 15 15 15 C 15.55 15 16 14.55 16 14 L 16 12 C 16 11.45 15.55 11 15 11 z M 20 11 C 19.45 11 19 11.45 19 12 L 19 14 C 19 14.55 19.45 15 20 15 C 20.55 15 21 14.55 21 14 L 21 12 C 21 11.45 20.55 11 20 11 z M 25 11 C 24.45 11 24 11.45 24 12 L 24 14 C 24 14.55 24.45 15 25 15 C 25.55 15 26 14.55 26 14 L 26 12 C 26 11.45 25.55 11 25 11 z M 37 11 C 36.45 11 36 11.45 36 12 L 36 14 C 36 14.55 36.45 15 37 15 C 37.55 15 38 14.55 38 14 L 38 12 C 38 11.45 37.55 11 37 11 z M 42 11 C 41.45 11 41 11.45 41 12 L 41 14 C 41 14.55 41.45 15 42 15 C 42.55 15 43 14.55 43 14 L 43 12 C 43 11.45 42.55 11 42 11 z M 47 11 C 46.45 11 46 11.45 46 12 L 46 14 C 46 14.55 46.45 15 47 15 C 47.55 15 48 14.55 48 14 L 48 12 C 48 11.45 47.55 11 47 11 z M 52 11 C 51.45 11 51 11.45 51 12 L 51 14 C 51 14.55 51.45 15 52 15 C 52.55 15 53 14.55 53 14 L 53 12 C 53 11.45 52.55 11 52 11 z M 39.980469 25 L 39.990234 25 C 40.500234 25 41.020391 25.229375 41.400391 25.609375 C 41.790391 25.999375 42 26.5 42 27 L 42 41 C 42 41.55 42.440234 42 42.990234 42 L 43 42 C 43.55 42 43.99 41.559766 44 41.009766 C 44.01 39.809766 44.82 39 46 39 C 46.45 39 47.65 39.000078 48 41.080078 L 48 42 C 48 42.55 48.44 43 49 43 C 49.55 43 49.99 42.559766 50 42.009766 C 50.01 41.409766 50.21 40 52 40 C 53.4 40 54 41.52 54 42 L 54 43 C 54 43.46 54.319531 43.860703 54.769531 43.970703 C 55.209531 44.070703 55.680625 43.859219 55.890625 43.449219 C 55.890625 43.449219 55.93 43.379297 56 43.279297 C 56.24 42.899297 56.94 42 58 42 C 59.4 42 60 43.52 60 44 L 60 51.060547 C 60.04 51.670547 60.020938 52.260078 59.960938 52.830078 C 59.540937 56.860078 56.789453 59.77 52.939453 60 C 52.779453 60.01 52.409922 60.01 52.169922 60 L 43.009766 60 C 40.739766 59.97 38.559531 58.730078 37.019531 56.580078 L 36 55.199219 L 34.640625 53.349609 L 32.470703 50.390625 L 31.25 48.730469 L 28.839844 45.449219 C 28.719844 45.269219 28.189766 44.239609 28.009766 43.849609 C 28.049766 43.359609 28.249844 42.910313 28.589844 42.570312 C 28.949844 42.200313 29.440469 42.03 29.980469 42 L 30 42 C 30.29 42.05 31.019531 42.550703 31.269531 42.720703 L 32 43.160156 L 36.490234 45.859375 C 36.790234 46.039375 37.180234 46.049141 37.490234 45.869141 C 37.810234 45.689141 38 45.36 38 45 L 38 27.009766 C 38.01 25.959766 38.950469 25 39.980469 25 z"/></svg>