<svg xmlns="http://www.w3.org/2000/svg" xmlns:xlink="http://www.w3.org/1999/xlink" viewBox="0,0,256,256" width="64px" height="64px" fill-rule="nonzero"><g fill="#d41212" fill-rule="nonzero" stroke="none" stroke-width="1" stroke-linecap="butt" stroke-linejoin="miter" stroke-miterlimit="10" stroke-dasharray="" stroke-dashoffset="0" font-family="none" font-weight="none" font-size="none" text-anchor="none" style="mix-blend-mode: normal"><g transform="scale(4,4)"><path d="M20.33008,3c-0.48953,0.00026 -0.90693,0.35484 -0.98633,0.83789c-0.96246,5.83544 0.39284,10.1223 1.77539,12.75391c-0.70966,1.61383 -1.11914,3.28007 -1.11914,4.9082c0,3.40199 1.22277,5.91854 3.23633,7.875c0.35938,0.34919 0.74898,0.6794 1.15234,1.00195l-8.07031,20.62305h-5.81836c-2.47344,0 -4.5,2.02656 -4.5,4.5c0,2.47344 2.02656,4.5 4.5,4.5h36.33008c1.85223,0 3.31203,-1.71333 2.95313,-3.54687c-0.3749,-1.91582 -1.2766,-2.97184 -1.90039,-3.64648c-0.62379,-0.67465 -0.88281,-0.8235 -0.88281,-1.80664c0,-1.27778 0.48353,-4.07243 0.98438,-6.95117c0.50085,-2.87874 1.01563,-5.87803 1.01563,-8.04883c0,-1.90926 -0.21712,-3.5677 -0.45312,-4.83398c0.80434,-0.56379 1.54827,-1.14999 2.20898,-1.79102c2.01591,-1.95585 3.24414,-4.47186 3.24414,-7.875c0,-1.9731 -0.59218,-4.00159 -1.61133,-5.92383c1.18224,-2.66538 2.13213,-6.60375 1.28516,-11.73828c-0.0794,-0.48305 -0.49679,-0.83763 -0.98633,-0.83789c-4.99981,0 -8.61295,2.08282 -10.74219,3.79492c-1.5617,-0.50573 -3.21984,-0.79492 -4.94531,-0.79492c-1.97913,0 -3.86397,0.39174 -5.62109,1.04492c-2.08106,-1.75375 -5.79982,-4.04492 -11.04883,-4.04492zM51.78125,5.09961c0.42105,3.46142 -0.01249,6.25114 -0.71094,8.35547c-0.60928,-0.82831 -1.29971,-1.62031 -2.06055,-2.35937c-1.40209,-1.36196 -3.06115,-2.53237 -4.89258,-3.41602c1.77629,-1.19623 4.35203,-2.37764 7.66406,-2.58008zM21.24805,5.10547c3.57197,0.22217 6.28104,1.58311 8.05859,2.86523c-1.60225,0.84584 -3.06295,1.90742 -4.31641,3.125c-1.04058,1.01079 -1.93906,2.12446 -2.6875,3.29102c-0.87942,-2.1862 -1.53833,-5.28304 -1.05469,-9.28125zM37,8c4.11674,0 7.88204,1.87244 10.61719,4.5293c2.73515,2.65686 4.38281,6.08804 4.38281,8.9707c0,2.95286 -0.91813,4.77206 -2.63672,6.43945c-1.71859,1.6674 -4.31416,3.10766 -7.49219,4.86328c0,0.00065 0,0.0013 0,0.00195c-2.80024,1.54726 -6.88246,1.57282 -9.74414,-0.00195c-3.18831,-1.75522 -5.78261,-3.19649 -7.49805,-4.86328c-1.71544,-1.66679 -2.62891,-3.48544 -2.62891,-6.43945c0,-2.88267 1.64766,-6.31384 4.38281,-8.9707c2.73515,-2.65686 6.50045,-4.5293 10.61719,-4.5293zM36.99023,9.98828c-0.552,0.004 -0.99619,0.45581 -0.99219,1.00781l0.01563,2c0.004,0.55 0.451,0.99219 1,0.99219h0.00586c0.553,-0.004 0.99814,-0.45386 0.99414,-1.00586l-0.01562,-2c-0.004,-0.55 -0.451,-0.99414 -1,-0.99414zM42.05078,10.88086c-0.3892,0.01397 -0.75264,0.25483 -0.90039,0.64258l-0.71289,1.86914c-0.196,0.517 0.06213,1.09402 0.57813,1.29102c0.117,0.045 0.23647,0.06445 0.35547,0.06445c0.402,0 0.78255,-0.24358 0.93555,-0.64258l0.71289,-1.86914c0.196,-0.517 -0.06213,-1.09402 -0.57812,-1.29102c-0.1285,-0.04875 -0.26089,-0.06911 -0.39062,-0.06445zM31.95117,10.93359c-0.12966,-0.00359 -0.26092,0.01811 -0.38867,0.06836c-0.514,0.201 -0.76936,0.77992 -0.56836,1.29492l0.72852,1.86328c0.155,0.395 0.53264,0.63672 0.93164,0.63672c0.121,0 0.24428,-0.02136 0.36328,-0.06836c0.514,-0.201 0.76936,-0.77992 0.56836,-1.29492l-0.72852,-1.86328c-0.15075,-0.38625 -0.51728,-0.62594 -0.90625,-0.63672zM30.5,18c-1.38071,0 -2.5,1.11929 -2.5,2.5c0,1.38071 1.11929,2.5 2.5,2.5c1.38071,0 2.5,-1.11929 2.5,-2.5c0,-1.38071 -1.11929,-2.5 -2.5,-2.5zM43.5,18c-1.38071,0 -2.5,1.11929 -2.5,2.5c0,1.38071 1.11929,2.5 2.5,2.5c1.38071,0 2.5,-1.11929 2.5,-2.5c0,-1.38071 -1.11929,-2.5 -2.5,-2.5zM37,24c-0.45844,0 -0.83223,0.08843 -1.10156,0.18945c-0.26933,0.10102 -0.49805,0.26172 -0.49805,0.26172c-0.25162,0.18889 -0.39967,0.48518 -0.39967,0.7998c0,0.31463 0.14806,0.61091 0.39967,0.7998l0.59961,0.44922v0.5c0,0.56503 -0.43497,1 -1,1c-0.56503,0 -1,-0.43497 -1,-1c0.0051,-0.36064 -0.18438,-0.69608 -0.49587,-0.87789c-0.3115,-0.18181 -0.69676,-0.18181 -1.00825,0c-0.3115,0.18181 -0.50097,0.51725 -0.49587,0.87789c0,1.64497 1.35503,3 3,3c0.77696,0 1.46463,-0.34162 2,-0.83398c0.53537,0.49236 1.22304,0.83398 2,0.83398c1.64497,0 3,-1.35503 3,-3c0.0051,-0.36064 -0.18438,-0.69608 -0.49587,-0.87789c-0.3115,-0.18181 -0.69676,-0.18181 -1.00825,0c-0.3115,0.18181 -0.50097,0.51725 -0.49587,0.87789c0,0.56503 -0.43497,1 -1,1c-0.56503,0 -1,-0.43497 -1,-1v-0.5l0.59961,-0.44922c0.25162,-0.18889 0.39967,-0.48518 0.39967,-0.7998c0,-0.31463 -0.14806,-0.61091 -0.39967,-0.7998c0,0 -0.22872,-0.1607 -0.49805,-0.26172c-0.26933,-0.10102 -0.64312,-0.18945 -1.10156,-0.18945zM26.0625,31.58789c1.50752,0.99495 3.22047,1.9323 5.09961,2.9668c3.54232,1.94927 8.19602,1.92274 11.67578,0c1.39297,-0.76951 2.68021,-1.48547 3.87891,-2.21094c0.15753,1.04028 0.2832,2.28368 0.2832,3.65625c0,1.83821 -0.48522,4.83802 -0.98437,7.70703c-0.49915,2.86901 -1.01562,5.57075 -1.01562,7.29297c0,1.54485 0.8051,2.50546 1.41406,3.16406c0.60896,0.65861 1.11015,1.16065 1.40625,2.67383c0.1191,0.60845 -0.35246,1.16211 -0.99023,1.16211h-4.18359c0.17493,-0.47986 0.24282,-1.00484 0.13672,-1.54687c-0.3749,-1.91582 -1.2766,-2.97184 -1.90039,-3.64648c-0.62379,-0.67465 -0.88281,-0.8235 -0.88281,-1.80664v-3c0.0037,-0.2703 -0.10218,-0.53059 -0.29351,-0.72155c-0.19133,-0.19097 -0.45182,-0.29634 -0.72212,-0.29212c-0.55152,0.00862 -0.99193,0.46214 -0.98437,1.01367v3c0,1.54485 0.8051,2.50546 1.41406,3.16406c0.60896,0.65861 1.11015,1.16065 1.40625,2.67383c0.1191,0.60845 -0.35246,1.16211 -0.99023,1.16211h-6.21289c0.05437,-0.26813 0.08182,-0.54 0.06836,-0.80664c-0.06779,-1.3428 -0.79267,-2.6914 -1.97461,-3.65234c-0.88518,-0.71964 -1.17489,-1.29273 -1.30273,-1.87305c-0.12785,-0.58032 -0.05579,-1.2322 0.03516,-2.01172c0.09094,-0.77952 0.20222,-1.69628 -0.09375,-2.6875c-0.29597,-0.99122 -1.02117,-1.96015 -2.27734,-2.80078c-0.16559,-0.11376 -0.3616,-0.17502 -0.5625,-0.17578c-0.44433,-0.00253 -0.83704,0.28841 -0.96405,0.7142c-0.12701,0.42579 0.04213,0.88433 0.41523,1.12564c0.98532,0.65937 1.31778,1.1903 1.47266,1.70898c0.15488,0.51869 0.11211,1.12271 0.02344,1.88281c-0.08868,0.76011 -0.22415,1.66695 -0.00195,2.67578c0.22225,1.00883 0.83932,2.05528 1.99414,2.99414c0.73806,0.60006 1.20952,1.59273 1.24023,2.20117c0.01536,0.30422 -0.05706,0.46481 -0.12109,0.53906c-0.06399,0.07425 -0.16018,0.16602 -0.56836,0.16602h-20.5c-1.39256,0 -2.5,-1.10744 -2.5,-2.5c0,-1.39256 1.10744,-2.5 2.5,-2.5h6.5c0.41158,0.00027 0.78129,-0.25163 0.93164,-0.63477zM38.98438,40.98633c-0.55152,0.00862 -0.99193,0.46214 -0.98437,1.01367v2c-0.0051,0.36064 0.18438,0.69608 0.49587,0.87789c0.3115,0.18181 0.69676,0.18181 1.00825,0c0.3115,-0.18181 0.50097,-0.51725 0.49587,-0.87789v-2c0.0037,-0.2703 -0.10218,-0.53059 -0.29351,-0.72155c-0.19133,-0.19097 -0.45182,-0.29634 -0.72212,-0.29212z"></path></g></g></svg>