<svg xmlns="http://www.w3.org/2000/svg" xmlns:xlink="http://www.w3.org/1999/xlink" viewBox="0,0,256,256" width="64px" height="64px" fill-rule="nonzero"><g fill="#d41212" fill-rule="nonzero" stroke="none" stroke-width="1" stroke-linecap="butt" stroke-linejoin="miter" stroke-miterlimit="10" stroke-dasharray="" stroke-dashoffset="0" font-family="none" font-weight="none" font-size="none" text-anchor="none" style="mix-blend-mode: normal"><g transform="scale(4,4)"><path d="M32,4c-15.44029,0 -28,12.55972 -28,28c0,15.44028 12.55971,28 28,28c15.44029,0 28,-12.55972 28,-28c0,-15.44028 -12.55971,-28 -28,-28zM32,8c13.27853,0 24,10.72148 24,24c0,7.54884 -3.46833,14.26815 -8.89844,18.66406c-1.05075,-1.97915 -2.55323,-3.71781 -4.38086,-5.10352c-1.73,1.78 -5.2307,4.43945 -10.7207,4.43945c-5.47,0 -8.9907,-2.66922 -10.7207,-4.44922c-1.82763,1.39319 -3.33011,3.13366 -4.38086,5.11328c-5.43011,-4.39592 -8.89844,-11.11522 -8.89844,-18.66406c0,-13.27852 10.72147,-24 24,-24zM21.29492,19c0,0 -3.29492,1.64722 -3.29492,14.82422c0,7.069 6.268,13.17578 14,13.17578c7.732,0 14,-6.10678 14,-13.17578c0,-13.177 -3.29492,-14.82422 -3.29492,-14.82422c-3.294,1.647 -5.32031,5.38477 -5.32031,5.38477h-10.76953c0,0 -2.02631,-3.73777 -5.32031,-5.38477zM26,31c1.657,0 3,1.343 3,3c0,1.657 -1.343,3 -3,3c-1.657,0 -3,-1.343 -3,-3c0,-1.657 1.343,-3 3,-3zM38,31c1.657,0 3,1.343 3,3c0,1.657 -1.343,3 -3,3c-1.657,0 -3,-1.343 -3,-3c0,-1.657 1.343,-3 3,-3z"></path></g></g></svg>