<svg xmlns="http://www.w3.org/2000/svg" xmlns:xlink="http://www.w3.org/1999/xlink" viewBox="0,0,256,256" width="64px" height="64px" fill-rule="nonzero"><g fill="#d41212" fill-rule="nonzero" stroke="none" stroke-width="1" stroke-linecap="butt" stroke-linejoin="miter" stroke-miterlimit="10" stroke-dasharray="" stroke-dashoffset="0" font-family="none" font-weight="none" font-size="none" text-anchor="none" style="mix-blend-mode: normal"><g transform="scale(4,4)"><path d="M25,0c-13.78516,0 -25,11.21484 -25,25c0,13.78516 11.21484,25 25,25c5.51563,0 10.61328,-1.79687 14.75,-4.83203c0,0 2.77734,2.71875 2.91016,2.76563c0,0.02344 -0.00391,0.04297 -0.00391,0.06641c0,1.33594 0.51953,2.59375 1.46484,3.53516l10.34375,10.34375c0.97656,0.97656 2.25391,1.46094 3.53516,1.46094c1.28125,0 2.5625,-0.48437 3.53516,-1.46094l0.34375,-0.34766c0.94531,-0.94141 1.46484,-2.19531 1.46484,-3.53125c0,-1.33594 -0.51953,-2.59375 -1.46484,-3.53516l-10.34375,-10.34375c-0.99219,-0.99219 -2.29687,-1.47266 -3.59766,-1.45312c-0.05078,-0.13672 -2.76953,-2.91797 -2.76953,-2.91797c3.03516,-4.13672 4.83203,-9.23437 4.83203,-14.75c0,-13.78516 -11.21484,-25 -25,-25zM25,2c12.68359,0 23,10.31641 23,23c0,12.68359 -10.31641,23 -23,23c-12.68359,0 -23,-10.31641 -23,-23c0,-12.68359 10.31641,-23 23,-23zM25,6c-5.07422,0 -9.84766,1.97656 -13.4375,5.5625c-7.40625,7.41016 -7.40625,19.46484 0,26.87109c3.58984,3.58984 8.36328,5.56641 13.4375,5.56641c5.07422,0 9.84766,-1.97656 13.4375,-5.5625c7.40625,-7.41016 7.40625,-19.46484 0,-26.875c-3.58984,-3.58594 -8.36328,-5.5625 -13.4375,-5.5625zM25,8c4.53906,0 8.80859,1.76953 12.01953,4.98047c6.62891,6.625 6.62891,17.41406 0,24.03906c-3.21094,3.21094 -7.48047,4.98047 -12.01953,4.98047c-4.53906,0 -8.80859,-1.76953 -12.01953,-4.98047c-6.62891,-6.625 -6.62891,-17.41016 0,-24.03906c3.21094,-3.21094 7.48047,-4.98047 12.01953,-4.98047zM24.80859,11c-3.63672,0.04297 -7.10547,1.49609 -9.71094,4.09766c-0.39062,0.39453 -0.39062,1.02344 0,1.41797c0.19531,0.19141 0.45313,0.29297 0.71094,0.29297c0.25391,0 0.51172,-0.10156 0.70703,-0.29297c2.54688,-2.55078 6.06641,-3.8125 9.66406,-3.45703c0.55078,0.04688 1.03906,-0.34766 1.09375,-0.89844c0.05469,-0.55078 -0.34766,-1.03906 -0.89844,-1.09375c-0.52344,-0.05078 -1.04687,-0.07422 -1.56641,-0.06641zM31.85938,12.875c-0.38281,-0.05469 -0.78516,0.12109 -1,0.47656c-0.28516,0.47266 -0.13281,1.08594 0.34375,1.37109c0.82031,0.5 1.58984,1.10156 2.28125,1.79297c0.19531,0.19531 0.44922,0.29297 0.70703,0.29297c0.25781,0 0.51172,-0.09766 0.71094,-0.29297c0.38672,-0.39062 0.38672,-1.02344 0,-1.41406c-0.80859,-0.80469 -1.70703,-1.50781 -2.66797,-2.08984c-0.11719,-0.07031 -0.24609,-0.11719 -0.375,-0.13672zM11,24c-0.55078,0 -1,0.44531 -1,1c0,0.55469 0.44922,1 1,1h2c0.55078,0 1,-0.44531 1,-1c0,-0.55469 -0.44922,-1 -1,-1zM37,24c-0.55078,0 -1,0.44531 -1,1c0,0.55469 0.44922,1 1,1h2c0.55078,0 1,-0.44531 1,-1c0,-0.55469 -0.44922,-1 -1,-1zM13.89063,28.49609c-0.12891,-0.00391 -0.26562,0.01953 -0.39062,0.07031l-1.85547,0.75c-0.51172,0.20703 -0.75781,0.78906 -0.55078,1.30078c0.15625,0.39063 0.53125,0.62891 0.92578,0.62891c0.125,0 0.25391,-0.02344 0.375,-0.07422l1.85547,-0.75c0.51172,-0.20703 0.75781,-0.78906 0.55078,-1.30078c-0.15625,-0.38281 -0.51953,-0.62109 -0.91016,-0.625zM36.04688,28.6875c-0.39062,0 -0.76172,0.23047 -0.92187,0.60938c-0.21484,0.51172 0.01953,1.09766 0.53125,1.3125l1.83984,0.78125c0.125,0.05469 0.25781,0.07813 0.39063,0.07813c0.39063,0 0.75781,-0.22656 0.92188,-0.60937c0.21484,-0.50781 -0.02344,-1.09375 -0.53125,-1.30859l-1.83984,-0.78125c-0.12891,-0.05469 -0.26172,-0.08203 -0.39062,-0.08203zM16.51563,32.48438c-0.25781,0 -0.51172,0.09766 -0.70703,0.29297l-1.41406,1.41406c-0.39062,0.39063 -0.39062,1.02344 0,1.41406c0.19531,0.19531 0.44922,0.29297 0.70703,0.29297c0.25781,0 0.51172,-0.09766 0.70703,-0.29297l1.41406,-1.41406c0.39063,-0.39062 0.39063,-1.02344 0,-1.41406c-0.19531,-0.19531 -0.45312,-0.29297 -0.70703,-0.29297zM33.48438,32.48438c-0.25391,0 -0.51172,0.09766 -0.70703,0.29297c-0.39062,0.39063 -0.39062,1.02344 0,1.41406l1.41406,1.41406c0.19531,0.19531 0.44922,0.29297 0.70703,0.29297c0.25781,0 0.51172,-0.09766 0.70703,-0.29297c0.39063,-0.39062 0.39063,-1.02344 0,-1.41406l-1.41406,-1.41406c-0.19531,-0.19531 -0.45312,-0.29297 -0.70703,-0.29297zM20.3125,35.04688c-0.39062,0 -0.76172,0.22656 -0.92187,0.60938l-0.78125,1.83984c-0.21484,0.50781 0.02344,1.09766 0.53125,1.3125c0.12891,0.05469 0.25781,0.07813 0.39063,0.07813c0.38672,0 0.75781,-0.23047 0.92188,-0.60937l0.78125,-1.83984c0.21484,-0.50781 -0.02344,-1.09766 -0.53125,-1.3125c-0.12891,-0.05469 -0.26172,-0.07812 -0.39062,-0.07812zM29.51172,35.125c-0.12891,0 -0.26562,0.02344 -0.39062,0.07422c-0.51562,0.20703 -0.76172,0.78906 -0.55469,1.30078l0.75,1.85547c0.15625,0.39063 0.53125,0.625 0.92969,0.625c0.125,0 0.25,-0.02344 0.375,-0.07422c0.51172,-0.20703 0.75781,-0.78906 0.55078,-1.30078l-0.75,-1.85547c-0.15625,-0.38281 -0.51953,-0.61719 -0.91016,-0.625zM25,36c-0.55078,0 -1,0.44531 -1,1v2c0,0.55469 0.44922,1 1,1c0.55078,0 1,-0.44531 1,-1v-2c0,-0.55469 -0.44922,-1 -1,-1zM43.91016,41.32422l1.875,1.87891c-0.47266,0.23438 -0.92578,0.52734 -1.32031,0.92188l-0.34375,0.33984c-0.39062,0.39063 -0.68359,0.83984 -0.92187,1.31641l-1.875,-1.87109c0.92578,-0.79687 1.78906,-1.66016 2.58594,-2.58594zM48,44.65625c0.76953,0 1.53906,0.29297 2.125,0.87891l10.34375,10.34375c0.56641,0.56641 0.875,1.32031 0.875,2.12109c0,0.80078 -0.3125,1.55469 -0.87891,2.12109l-0.34375,0.34375c-1.17187,1.16797 -3.07031,1.16797 -4.24219,0l-10.34375,-10.34375c-0.56641,-0.56641 -0.87891,-1.32031 -0.87891,-2.12109c0,-0.80078 0.3125,-1.55469 0.87891,-2.12109l0.34375,-0.34375c0.58594,-0.58594 1.35547,-0.87891 2.12109,-0.87891z"></path></g></g></svg>